<?xml version="1.0" encoding="us-ascii" standalone="no"?><svg xmlns="http://www.w3.org/2000/svg" xmlns:xlink="http://www.w3.org/1999/xlink" contentStyleType="text/css" height="207px" preserveAspectRatio="none" style="width:481px;height:207px;background:#FFFFFF;" version="1.1" viewBox="0 0 481 207" width="481px" zoomAndPan="magnify"><defs/><g><!--class Animal--><g id="elem_Animal"><rect codeLine="3" fill="#F1F1F1" height="66.6211" id="Animal" rx="2.5" ry="2.5" style="stroke:#181818;stroke-width:0.5;" width="108" x="116.5" y="7"/><ellipse cx="146.8" cy="23" fill="#A9DCDF" rx="11" ry="11" style="stroke:#181818;stroke-width:1.0;"/><path d="M148.9875,24.7656 L144.8469,24.7656 L144.425,25.7969 L144.8469,25.7969 Q145.4563,25.7969 145.7219,26.0313 Q145.9875,26.2656 145.9875,26.6563 Q145.9875,27.0313 145.7219,27.2656 Q145.4563,27.5 144.8469,27.5 L142.55,27.5 Q141.9406,27.5 141.6906,27.2656 Q141.425,27.0313 141.425,26.6406 Q141.425,26.2656 141.7063,26.0313 Q141.9719,25.7813 142.5969,25.7969 L145.2688,19.1406 L144.1594,19.1406 Q143.55,19.1406 143.2844,18.9063 Q143.0188,18.6719 143.0188,18.2813 Q143.0188,17.9063 143.2844,17.6719 Q143.55,17.4375 144.1594,17.4375 L147.8313,17.4375 L151.2219,25.7969 Q151.8156,25.7969 152.0031,25.9375 Q152.3938,26.2031 152.3938,26.6563 Q152.3938,27.0313 152.1281,27.2656 Q151.8781,27.5 151.2688,27.5 L148.9719,27.5 Q148.3625,27.5 148.0969,27.2656 Q147.8313,27.0313 147.8313,26.6406 Q147.8313,26.2656 148.0969,26.0313 Q148.3625,25.7969 148.9719,25.7969 L149.3938,25.7969 L148.9875,24.7656 Z M148.2688,23.0625 L146.9094,19.6875 L145.5344,23.0625 L148.2688,23.0625 Z " fill="#000000"/><text fill="#000000" font-family="sans-serif" font-size="14" font-style="italic" lengthAdjust="spacing" textLength="42" x="164.2" y="28.7969">Animal</text><line style="stroke:#181818;stroke-width:0.5;" x1="117.5" x2="223.5" y1="39" y2="39"/><ellipse cx="127.5" cy="53.8105" fill="none" rx="3" ry="3" style="stroke:#038048;stroke-width:1.0;"/><text fill="#000000" font-family="sans-serif" font-size="14" lengthAdjust="spacing" textLength="82" x="136.5" y="58.1074">name : string</text><line style="stroke:#181818;stroke-width:0.5;" x1="117.5" x2="223.5" y1="65.6211" y2="65.6211"/></g><!--class IVoice--><g id="elem_IVoice"><rect codeLine="7" fill="#F1F1F1" height="66.6211" id="IVoice" rx="2.5" ry="2.5" style="stroke:#181818;stroke-width:0.5;" width="114" x="325.5" y="7"/><ellipse cx="359.85" cy="23" fill="#B4A7E5" rx="11" ry="11" style="stroke:#181818;stroke-width:1.0;"/><path d="M360.8031,19.6406 L360.8031,26.2969 L362.5219,26.2969 Q363.1313,26.2969 363.3969,26.5313 Q363.6625,26.7656 363.6625,27.1563 Q363.6625,27.5313 363.3969,27.7656 Q363.1313,28 362.5219,28 L357.3813,28 Q356.7719,28 356.5063,27.7656 Q356.2406,27.5313 356.2406,27.1406 Q356.2406,26.7656 356.5063,26.5313 Q356.7719,26.2969 357.3813,26.2969 L359.1,26.2969 L359.1,19.6406 L357.3813,19.6406 Q356.7719,19.6406 356.5063,19.4063 Q356.2406,19.1719 356.2406,18.7813 Q356.2406,18.4063 356.5063,18.1719 Q356.7719,17.9375 357.3813,17.9375 L362.5219,17.9375 Q363.1313,17.9375 363.3969,18.1719 Q363.6625,18.4063 363.6625,18.7813 Q363.6625,19.1719 363.3969,19.4063 Q363.1313,19.6406 362.5219,19.6406 L360.8031,19.6406 Z " fill="#000000"/><text fill="#000000" font-family="sans-serif" font-size="14" font-style="italic" lengthAdjust="spacing" textLength="39" x="378.15" y="28.7969">IVoice</text><line style="stroke:#181818;stroke-width:0.5;" x1="326.5" x2="438.5" y1="39" y2="39"/><line style="stroke:#181818;stroke-width:0.5;" x1="326.5" x2="438.5" y1="47" y2="47"/><ellipse cx="336.5" cy="61.8105" fill="#84BE84" rx="3" ry="3" style="stroke:#038048;stroke-width:1.0;"/><text fill="#000000" font-family="sans-serif" font-size="14" font-style="italic" lengthAdjust="spacing" textLength="88" x="345.5" y="66.1074">Sound() : void</text></g><!--class Fish--><g id="elem_Fish"><rect codeLine="12" fill="#F1F1F1" height="48" id="Fish" rx="2.5" ry="2.5" style="stroke:#181818;stroke-width:0.5;" width="59" x="7" y="143.5"/><ellipse cx="22" cy="159.5" fill="#ADD1B2" rx="11" ry="11" style="stroke:#181818;stroke-width:1.0;"/><path d="M24.7656,155.375 Q24.9219,155.1563 25.1094,155.0469 Q25.2969,154.9375 25.5156,154.9375 Q25.8906,154.9375 26.125,155.2031 Q26.3594,155.4531 26.3594,156.0625 L26.3594,157.5156 Q26.3594,158.125 26.125,158.3906 Q25.8906,158.6563 25.5156,158.6563 Q25.1719,158.6563 24.9688,158.4531 Q24.7656,158.2656 24.6563,157.75 Q24.6094,157.3906 24.4219,157.2031 Q24.0938,156.8281 23.4844,156.6094 Q22.875,156.3906 22.25,156.3906 Q21.4844,156.3906 20.8438,156.7188 Q20.2188,157.0469 19.7188,157.7969 Q19.2344,158.5469 19.2344,159.5781 L19.2344,160.6719 Q19.2344,161.9063 20.125,162.7344 Q21.0156,163.5469 22.6094,163.5469 Q23.5469,163.5469 24.2031,163.2969 Q24.5938,163.1406 25.0156,162.7031 Q25.2813,162.4375 25.4219,162.3594 Q25.5781,162.2813 25.7813,162.2813 Q26.1094,162.2813 26.3594,162.5469 Q26.625,162.7969 26.625,163.1406 Q26.625,163.4844 26.2813,163.8906 Q25.7813,164.4688 24.9844,164.7969 Q23.9063,165.25 22.6094,165.25 Q21.0938,165.25 19.8906,164.625 Q18.9063,164.125 18.2188,163.0625 Q17.5313,161.9844 17.5313,160.7031 L17.5313,159.5469 Q17.5313,158.2188 18.1406,157.0781 Q18.7656,155.9219 19.8594,155.3125 Q20.9531,154.6875 22.1875,154.6875 Q22.9219,154.6875 23.5625,154.8594 Q24.2188,155.0156 24.7656,155.375 Z " fill="#000000"/><text fill="#000000" font-family="sans-serif" font-size="14" lengthAdjust="spacing" textLength="27" x="36" y="165.2969">Fish</text><line style="stroke:#181818;stroke-width:0.5;" x1="8" x2="65" y1="175.5" y2="175.5"/><line style="stroke:#181818;stroke-width:0.5;" x1="8" x2="65" y1="183.5" y2="183.5"/></g><!--class Dog--><g id="elem_Dog"><rect codeLine="17" fill="#F1F1F1" height="66.6211" id="Dog" rx="2.5" ry="2.5" style="stroke:#181818;stroke-width:0.5;" width="115" x="209" y="134"/><ellipse cx="249.65" cy="150" fill="#ADD1B2" rx="11" ry="11" style="stroke:#181818;stroke-width:1.0;"/><path d="M252.4156,145.875 Q252.5719,145.6563 252.7594,145.5469 Q252.9469,145.4375 253.1656,145.4375 Q253.5406,145.4375 253.775,145.7031 Q254.0094,145.9531 254.0094,146.5625 L254.0094,148.0156 Q254.0094,148.625 253.775,148.8906 Q253.5406,149.1563 253.1656,149.1563 Q252.8219,149.1563 252.6188,148.9531 Q252.4156,148.7656 252.3063,148.25 Q252.2594,147.8906 252.0719,147.7031 Q251.7438,147.3281 251.1344,147.1094 Q250.525,146.8906 249.9,146.8906 Q249.1344,146.8906 248.4938,147.2188 Q247.8688,147.5469 247.3688,148.2969 Q246.8844,149.0469 246.8844,150.0781 L246.8844,151.1719 Q246.8844,152.4063 247.775,153.2344 Q248.6656,154.0469 250.2594,154.0469 Q251.1969,154.0469 251.8531,153.7969 Q252.2438,153.6406 252.6656,153.2031 Q252.9313,152.9375 253.0719,152.8594 Q253.2281,152.7813 253.4313,152.7813 Q253.7594,152.7813 254.0094,153.0469 Q254.275,153.2969 254.275,153.6406 Q254.275,153.9844 253.9313,154.3906 Q253.4313,154.9688 252.6344,155.2969 Q251.5563,155.75 250.2594,155.75 Q248.7438,155.75 247.5406,155.125 Q246.5563,154.625 245.8688,153.5625 Q245.1813,152.4844 245.1813,151.2031 L245.1813,150.0469 Q245.1813,148.7188 245.7906,147.5781 Q246.4156,146.4219 247.5094,145.8125 Q248.6031,145.1875 249.8375,145.1875 Q250.5719,145.1875 251.2125,145.3594 Q251.8688,145.5156 252.4156,145.875 Z " fill="#000000"/><text fill="#000000" font-family="sans-serif" font-size="14" lengthAdjust="spacing" textLength="26" x="269.35" y="155.7969">Dog</text><line style="stroke:#181818;stroke-width:0.5;" x1="210" x2="323" y1="166" y2="166"/><line style="stroke:#181818;stroke-width:0.5;" x1="210" x2="323" y1="174" y2="174"/><ellipse cx="220" cy="188.8105" fill="#84BE84" rx="3" ry="3" style="stroke:#038048;stroke-width:1.0;"/><text fill="#000000" font-family="sans-serif" font-size="14" lengthAdjust="spacing" textLength="89" x="229" y="193.1074">Sound() : void</text></g><!--class Spider--><g id="elem_Spider"><rect codeLine="22" fill="#F1F1F1" height="48" id="Spider" rx="2.5" ry="2.5" style="stroke:#181818;stroke-width:0.5;" width="73" x="101" y="143.5"/><ellipse cx="116" cy="159.5" fill="#ADD1B2" rx="11" ry="11" style="stroke:#181818;stroke-width:1.0;"/><path d="M118.7656,155.375 Q118.9219,155.1563 119.1094,155.0469 Q119.2969,154.9375 119.5156,154.9375 Q119.8906,154.9375 120.125,155.2031 Q120.3594,155.4531 120.3594,156.0625 L120.3594,157.5156 Q120.3594,158.125 120.125,158.3906 Q119.8906,158.6563 119.5156,158.6563 Q119.1719,158.6563 118.9688,158.4531 Q118.7656,158.2656 118.6563,157.75 Q118.6094,157.3906 118.4219,157.2031 Q118.0938,156.8281 117.4844,156.6094 Q116.875,156.3906 116.25,156.3906 Q115.4844,156.3906 114.8438,156.7188 Q114.2188,157.0469 113.7188,157.7969 Q113.2344,158.5469 113.2344,159.5781 L113.2344,160.6719 Q113.2344,161.9063 114.125,162.7344 Q115.0156,163.5469 116.6094,163.5469 Q117.5469,163.5469 118.2031,163.2969 Q118.5938,163.1406 119.0156,162.7031 Q119.2813,162.4375 119.4219,162.3594 Q119.5781,162.2813 119.7813,162.2813 Q120.1094,162.2813 120.3594,162.5469 Q120.625,162.7969 120.625,163.1406 Q120.625,163.4844 120.2813,163.8906 Q119.7813,164.4688 118.9844,164.7969 Q117.9063,165.25 116.6094,165.25 Q115.0938,165.25 113.8906,164.625 Q112.9063,164.125 112.2188,163.0625 Q111.5313,161.9844 111.5313,160.7031 L111.5313,159.5469 Q111.5313,158.2188 112.1406,157.0781 Q112.7656,155.9219 113.8594,155.3125 Q114.9531,154.6875 116.1875,154.6875 Q116.9219,154.6875 117.5625,154.8594 Q118.2188,155.0156 118.7656,155.375 Z " fill="#000000"/><text fill="#000000" font-family="sans-serif" font-size="14" lengthAdjust="spacing" textLength="41" x="130" y="165.2969">Spider</text><line style="stroke:#181818;stroke-width:0.5;" x1="102" x2="173" y1="175.5" y2="175.5"/><line style="stroke:#181818;stroke-width:0.5;" x1="102" x2="173" y1="183.5" y2="183.5"/></g><!--class Cat--><g id="elem_Cat"><rect codeLine="26" fill="#F1F1F1" height="66.6211" id="Cat" rx="2.5" ry="2.5" style="stroke:#181818;stroke-width:0.5;" width="115" x="359" y="134"/><ellipse cx="401.45" cy="150" fill="#ADD1B2" rx="11" ry="11" style="stroke:#181818;stroke-width:1.0;"/><path d="M404.2156,145.875 Q404.3719,145.6563 404.5594,145.5469 Q404.7469,145.4375 404.9656,145.4375 Q405.3406,145.4375 405.575,145.7031 Q405.8094,145.9531 405.8094,146.5625 L405.8094,148.0156 Q405.8094,148.625 405.575,148.8906 Q405.3406,149.1563 404.9656,149.1563 Q404.6219,149.1563 404.4188,148.9531 Q404.2156,148.7656 404.1063,148.25 Q404.0594,147.8906 403.8719,147.7031 Q403.5438,147.3281 402.9344,147.1094 Q402.325,146.8906 401.7,146.8906 Q400.9344,146.8906 400.2938,147.2188 Q399.6688,147.5469 399.1688,148.2969 Q398.6844,149.0469 398.6844,150.0781 L398.6844,151.1719 Q398.6844,152.4063 399.575,153.2344 Q400.4656,154.0469 402.0594,154.0469 Q402.9969,154.0469 403.6531,153.7969 Q404.0438,153.6406 404.4656,153.2031 Q404.7313,152.9375 404.8719,152.8594 Q405.0281,152.7813 405.2313,152.7813 Q405.5594,152.7813 405.8094,153.0469 Q406.075,153.2969 406.075,153.6406 Q406.075,153.9844 405.7313,154.3906 Q405.2313,154.9688 404.4344,155.2969 Q403.3563,155.75 402.0594,155.75 Q400.5438,155.75 399.3406,155.125 Q398.3563,154.625 397.6688,153.5625 Q396.9813,152.4844 396.9813,151.2031 L396.9813,150.0469 Q396.9813,148.7188 397.5906,147.5781 Q398.2156,146.4219 399.3094,145.8125 Q400.4031,145.1875 401.6375,145.1875 Q402.3719,145.1875 403.0125,145.3594 Q403.6688,145.5156 404.2156,145.875 Z " fill="#000000"/><text fill="#000000" font-family="sans-serif" font-size="14" lengthAdjust="spacing" textLength="22" x="421.55" y="155.7969">Cat</text><line style="stroke:#181818;stroke-width:0.5;" x1="360" x2="473" y1="166" y2="166"/><line style="stroke:#181818;stroke-width:0.5;" x1="360" x2="473" y1="174" y2="174"/><ellipse cx="370" cy="188.8105" fill="#84BE84" rx="3" ry="3" style="stroke:#038048;stroke-width:1.0;"/><text fill="#000000" font-family="sans-serif" font-size="14" lengthAdjust="spacing" textLength="89" x="379" y="193.1074">Sound() : void</text></g><!--reverse link Animal to Fish--><g id="link_Animal_Fish"><path codeLine="11" d="M120.76,87.9 C100.55,106.75 78.1,127.7 61.45,143.22 " fill="none" id="Animal-backto-Fish" style="stroke:#181818;stroke-width:1.0;"/><polygon fill="none" points="116.24,82.54,135.64,74.02,125.79,92.78,116.24,82.54" style="stroke:#181818;stroke-width:1.0;"/></g><!--reverse link Animal to Dog--><g id="link_Animal_Dog"><path codeLine="15" d="M207.69,89.92 C218.95,104.58 231.04,120.33 241.32,133.71 " fill="none" id="Animal-backto-Dog" style="stroke:#181818;stroke-width:1.0;"/><polygon fill="none" points="202.1,94.14,195.47,74.02,213.21,85.61,202.1,94.14" style="stroke:#181818;stroke-width:1.0;"/></g><!--reverse link IVoice to Dog--><g id="link_IVoice_Dog"><path codeLine="16" d="M338.44,88.98 C324.59,103.9 309.61,120.04 296.93,133.71 " fill="none" id="IVoice-backto-Dog" style="stroke:#181818;stroke-width:1.0;stroke-dasharray:7.0,7.0;"/><polygon fill="none" points="333.59,83.91,352.33,74.02,343.85,93.44,333.59,83.91" style="stroke:#181818;stroke-width:1.0;"/></g><!--reverse link Animal to Spider--><g id="link_Animal_Spider"><path codeLine="21" d="M156.77,93.5 C152.2,110.8 147.34,129.22 143.64,143.22 " fill="none" id="Animal-backto-Spider" style="stroke:#181818;stroke-width:1.0;"/><polygon fill="none" points="150.04,91.57,161.92,74.02,163.58,95.14,150.04,91.57" style="stroke:#181818;stroke-width:1.0;"/></g><!--reverse link Animal to Cat--><g id="link_Animal_Cat"><path codeLine="24" d="M242.83,78.25 C279.84,97.06 324.27,119.63 358.92,137.24 " fill="none" id="Animal-backto-Cat" style="stroke:#181818;stroke-width:1.0;"/><polygon fill="none" points="239.45,84.39,224.79,69.09,245.79,71.91,239.45,84.39" style="stroke:#181818;stroke-width:1.0;"/></g><!--reverse link IVoice to Cat--><g id="link_IVoice_Cat"><path codeLine="25" d="M396.71,93.73 C400.39,107.27 404.26,121.48 407.58,133.71 " fill="none" id="IVoice-backto-Cat" style="stroke:#181818;stroke-width:1.0;stroke-dasharray:7.0,7.0;"/><polygon fill="none" points="389.84,95.15,391.34,74.02,403.35,91.48,389.84,95.15" style="stroke:#181818;stroke-width:1.0;"/></g><!--SRC=[VKsx3e8m5Dtx5NTJOu2Ti1YDYJE9-xMjqAGFqXQNmh_RKXmankcUSyzhrti_kBgg1edQZqgMrAYAIdIkO08xYueGV3XlaNfO_d3IGg64G8wWKN6e8Sf2TsGcH6ZFxHCfXzlTY7YIAtmAPcZDgDd-43Cl8rXAh6tDL1Hm5QudUIJ1iDKlfYDhRpELvSApFQ9bwdz_EmZ6xHh91CB6SqR_jP5u3aJqU-CD]--></g></svg>